<?xml version="1.0" encoding="utf-8"?>
<!-- Generator: Adobe Illustrator 27.9.0, SVG Export Plug-In . SVG Version: 6.00 Build 0)  -->
<svg version="1.1" id="Capa_1" xmlns="http://www.w3.org/2000/svg" xmlns:xlink="http://www.w3.org/1999/xlink" x="0px" y="0px"
	 viewBox="0 0 216 80" style="enable-background:new 0 0 216 80;" xml:space="preserve">
<g>
	<g>
		<g>
			<g>
				<path d="M28.37,57.94l-8.8-13.77v13.77h-8.45l-1.12-31.04h9.56v13.01l7.58-13.01h10.41l-9.91,14.97L38.4,57.94H28.37z"/>
				<path d="M58.56,52.87H47.69l-1.7,5.06h-9.05l12.05-31.17h8.26l12.31,31.17h-9.3L58.56,52.87z M53.11,36.5l-3.36,9.66h6.75
					L53.11,36.5z"/>
				<path d="M83.14,48.4h-3.06v9.54h-8.45V26.77h13.29c6.61,0,11.4,4.52,11.4,11.03c0,3.83-1.84,6.96-4.87,8.8l6.09,11.34h-9.43
					L83.14,48.4z M80.08,41.17h3.86c2.36,0,3.72-1.45,3.72-3.39c0-1.95-1.36-3.37-3.72-3.37h-3.86V41.17z"/>
				<path d="M120.37,50.49v7.45h-19.99V26.77H120v7.42h-11.21v4.59h10.07v7.04h-10.07v4.67H120.37z"/>
				<path d="M151.7,26.77v31.17h-6.99l-12.18-16.92v16.92h-8.19V26.77h7.4l11.78,16.35V26.77H151.7z"/>
			</g>
			<path d="M150.53,56.72c0,0-1.09-11.99,11.27-23.82c18.56-17.77,28.33-1.49,34.03,3.52c4.85,4.26,8.93,4.11,10.13-2.43
				c1.2-6.54-22.16-26.57-39.92-13.16c-17.65,13.33-20.4,32.74-20.4,32.74L150.53,56.72z"/>
			<g>
				<path d="M10,26.9c0,0,1.85-5.52,3.64-7.27c0.82-0.81,1.64-0.76,2.49,0.02c1.54,1.43,3.44,7.26,3.44,7.26l-2.22-0.01l-1.55-3.27
					c-0.13-0.19-0.42-0.17-0.53,0.03l-1.91,3.51L10,26.9z"/>
			</g>
			<g>
				<path d="M27.16,26.89c0,0,2.45-6.14,4.24-7.89c0.82-0.81,1.64-0.76,2.49,0.02c1.54,1.43,3.68,7.87,3.68,7.87h-2.45L33.57,23
					c-0.13-0.19-0.42-0.17-0.53,0.03l-2.21,3.86H27.16z"/>
			</g>
		</g>
		<g>
			<path d="M78.33,22.03c-0.8,0-1.57-0.07-2.3-0.2c-0.74-0.13-1.4-0.32-2-0.56c-0.6-0.24-1.12-0.51-1.54-0.8l1.56-3.06
				c0.48,0.3,0.98,0.56,1.49,0.77c0.51,0.21,1.04,0.38,1.57,0.49s1.07,0.17,1.6,0.17c0.51,0,0.94-0.05,1.3-0.15
				c0.36-0.1,0.63-0.25,0.82-0.44c0.19-0.19,0.28-0.42,0.28-0.68c0-0.29-0.12-0.52-0.37-0.69c-0.25-0.17-0.57-0.32-0.97-0.44
				c-0.4-0.12-0.84-0.25-1.33-0.38c-0.49-0.13-0.98-0.29-1.46-0.48c-0.49-0.19-0.93-0.42-1.33-0.7c-0.4-0.28-0.72-0.64-0.97-1.08
				c-0.25-0.44-0.37-0.98-0.37-1.63c0-1.05,0.27-1.96,0.82-2.73s1.33-1.37,2.33-1.8c1.01-0.43,2.2-0.64,3.58-0.64
				c1,0,1.94,0.11,2.81,0.32c0.87,0.21,1.62,0.52,2.24,0.92l-1.44,3.04c-0.55-0.36-1.15-0.63-1.81-0.82s-1.34-0.28-2.03-0.28
				c-0.54,0-0.99,0.06-1.37,0.19s-0.67,0.29-0.86,0.51c-0.19,0.21-0.29,0.45-0.29,0.71c0,0.28,0.12,0.5,0.36,0.68
				c0.24,0.18,0.56,0.33,0.97,0.45c0.41,0.12,0.85,0.25,1.34,0.38c0.49,0.13,0.97,0.28,1.45,0.45c0.48,0.17,0.93,0.4,1.34,0.68
				s0.74,0.64,0.98,1.06c0.24,0.43,0.36,0.96,0.36,1.59c0,1.03-0.27,1.94-0.82,2.71c-0.55,0.77-1.33,1.37-2.35,1.8
				C80.91,21.82,79.71,22.03,78.33,22.03z"/>
			<path d="M90.6,18.58h7.36l-0.64,3.16H86.07l2.81-14.46h10.98l-0.62,3.16h-7.08L90.6,18.58z M91.42,12.88h6.51l-0.58,3.06h-6.51
				L91.42,12.88z M92.58,6.1l3.01-3.14h3.93L95.41,6.1H92.58z"/>
			<path d="M112.21,22.03c-1.4,0-2.58-0.28-3.52-0.84c-0.94-0.56-1.61-1.34-1.99-2.36s-0.45-2.19-0.2-3.54l1.56-8.02h3.97
				l-1.54,7.96c-0.11,0.58-0.14,1.08-0.1,1.51c0.04,0.43,0.16,0.79,0.35,1.07c0.19,0.29,0.45,0.5,0.78,0.63s0.72,0.2,1.17,0.2
				c0.55,0,1.03-0.11,1.43-0.34c0.41-0.23,0.75-0.59,1.02-1.1s0.48-1.16,0.63-1.97l1.54-7.96h3.91l-1.58,8.2
				c-0.41,2.15-1.24,3.78-2.49,4.89C115.92,21.48,114.26,22.03,112.21,22.03z"/>
			<path d="M121.13,21.74l2.81-14.46h3.27l5.67,9.67l-1.36-0.04l1.86-9.63h3.89l-2.81,14.46h-3.27l-5.65-9.67l1.34,0.04l-1.86,9.63
				H121.13z"/>
			<path d="M135.6,21.74l9-14.46h3.91l3.39,14.46h-3.95l-2.5-12.52H147l-7.22,12.52H135.6z M139.53,18.93l1.6-3.02h6.86l0.44,3.02
				H139.53z"/>
		</g>
	</g>
	<g>
		<path d="M31.1,74.56l-0.34-1.67h-3.4l-0.99,1.67h-1.31l4.55-7.54h1.11l1.62,7.54H31.1z M29.88,68.55l-1.93,3.31h2.6L29.88,68.55z"
			/>
		<path d="M38.13,67.01c0.97,0,1.75,0.29,2.34,0.86c0.59,0.57,0.88,1.31,0.88,2.21c0,0.6-0.12,1.18-0.36,1.73s-0.56,1.03-0.97,1.43
			c-0.41,0.4-0.89,0.72-1.45,0.96c-0.56,0.24-1.15,0.36-1.77,0.36h-2.73l1.5-7.54H38.13z M36.86,73.48c0.58,0,1.13-0.16,1.64-0.47
			c0.51-0.31,0.91-0.73,1.21-1.25c0.3-0.52,0.45-1.07,0.45-1.66c0-0.62-0.19-1.11-0.58-1.47c-0.38-0.36-0.91-0.55-1.57-0.55h-1.46
			l-1.08,5.4H36.86z"/>
		<path d="M46.2,74.69c-0.66,0-1.25-0.14-1.76-0.43s-0.91-0.68-1.18-1.17c-0.28-0.5-0.41-1.06-0.41-1.68c0-0.62,0.12-1.21,0.36-1.77
			c0.24-0.56,0.57-1.04,0.99-1.45s0.91-0.73,1.5-0.96c0.58-0.24,1.2-0.36,1.85-0.36c1,0,1.8,0.31,2.42,0.93
			c0.62,0.62,0.93,1.4,0.93,2.35c0,0.62-0.12,1.21-0.36,1.77c-0.24,0.56-0.57,1.04-0.98,1.45c-0.41,0.41-0.91,0.73-1.49,0.97
			S46.85,74.69,46.2,74.69z M46.37,73.56c0.47,0,0.91-0.09,1.33-0.27c0.42-0.18,0.77-0.43,1.06-0.73c0.29-0.31,0.52-0.66,0.69-1.07
			s0.25-0.82,0.25-1.25c0-0.66-0.21-1.2-0.64-1.61s-0.99-0.62-1.69-0.62c-0.47,0-0.91,0.09-1.33,0.27
			c-0.42,0.18-0.77,0.42-1.06,0.73c-0.29,0.3-0.52,0.66-0.69,1.06c-0.17,0.4-0.25,0.82-0.25,1.25c0,0.66,0.21,1.2,0.64,1.62
			C45.1,73.35,45.66,73.56,46.37,73.56z"/>
		<path d="M56.39,67.01c0.64,0,1.16,0.2,1.56,0.59c0.4,0.39,0.6,0.89,0.6,1.48c0,0.52-0.13,1.01-0.4,1.45
			c-0.27,0.44-0.64,0.79-1.1,1.05s-0.96,0.38-1.5,0.38h-1.67l-0.52,2.59h-1.18l1.5-7.54H56.39z M55.61,70.87
			c0.47,0,0.88-0.17,1.23-0.51c0.35-0.34,0.52-0.74,0.52-1.21c0-0.32-0.1-0.57-0.31-0.76c-0.21-0.19-0.49-0.28-0.85-0.28h-1.55
			l-0.55,2.76H55.61z"/>
		<path d="M65.71,67.01l-0.21,1.06h-2.22l-1.29,6.48h-1.18l1.29-6.48h-2.24l0.22-1.06H65.71z"/>
		<path d="M70.61,74.56l-0.34-1.67h-3.4l-0.99,1.67h-1.32l4.55-7.54h1.11l1.62,7.54H70.61z M69.39,68.55l-1.93,3.31h2.6L69.39,68.55
			z"/>
		<path d="M79.68,74.69c-0.76,0-1.38-0.22-1.86-0.67s-0.72-1.02-0.72-1.72c0-0.06,0-0.11,0.01-0.16c0-0.05,0.01-0.12,0.02-0.21
			c0.01-0.09,0.03-0.17,0.04-0.25c0.01-0.08,0.04-0.21,0.07-0.37c0.03-0.16,0.06-0.32,0.09-0.48s0.08-0.37,0.13-0.65
			c0.06-0.28,0.11-0.55,0.17-0.82c0.06-0.27,0.13-0.62,0.22-1.06c0.09-0.43,0.17-0.87,0.26-1.3h1.19c-0.16,0.8-0.34,1.73-0.56,2.79
			c-0.19,0.96-0.31,1.56-0.35,1.81c-0.04,0.25-0.07,0.42-0.07,0.54c0,0.44,0.13,0.78,0.39,1.03c0.26,0.25,0.62,0.38,1.08,0.38
			c0.54,0,1.02-0.18,1.44-0.53c0.42-0.35,0.69-0.81,0.8-1.37l0.92-4.65h1.19l-0.98,4.81c-0.17,0.86-0.57,1.56-1.2,2.08
			C81.31,74.43,80.56,74.69,79.68,74.69z"/>
		<path d="M91.59,67.01h1.19l-1.5,7.54h-0.98l-2.88-5.5l-1.09,5.5h-1.19l1.5-7.54h1.05l2.82,5.41L91.59,67.01z"/>
		<path d="M100.95,71.77l0.21-1.02h4.04c-0.22,1.21-0.73,2.17-1.53,2.88c-0.79,0.71-1.77,1.06-2.94,1.06c-0.97,0-1.76-0.3-2.36-0.89
			s-0.9-1.36-0.9-2.29c0-0.61,0.12-1.21,0.36-1.77s0.56-1.06,0.97-1.48c0.41-0.42,0.89-0.75,1.46-1c0.56-0.25,1.16-0.37,1.78-0.37
			c0.6,0,1.14,0.12,1.62,0.36c0.49,0.24,0.87,0.57,1.15,1c0.28,0.43,0.43,0.9,0.44,1.43h-1.19c-0.07-0.5-0.3-0.9-0.67-1.2
			c-0.37-0.3-0.84-0.45-1.41-0.45c-0.6,0-1.16,0.16-1.67,0.48c-0.51,0.32-0.91,0.75-1.2,1.29c-0.29,0.54-0.44,1.11-0.44,1.73
			c0,0.63,0.19,1.13,0.56,1.5c0.38,0.36,0.9,0.54,1.57,0.54c0.68,0,1.26-0.16,1.76-0.48c0.5-0.32,0.87-0.76,1.1-1.31H100.95z"/>
		<path d="M111.52,74.56l-0.34-1.67h-3.4l-0.99,1.67h-1.32l4.55-7.54h1.11l1.62,7.54H111.52z M110.3,68.55l-1.93,3.31h2.6
			L110.3,68.55z"/>
		<path d="M120.11,67.01l-0.21,1.06h-2.22l-1.29,6.48h-1.18l1.29-6.48h-2.24l0.22-1.06H120.11z"/>
		<path d="M120.44,74.56l1.5-7.54h1.18l-1.51,7.54H120.44z"/>
		<path d="M130.55,67.01l-0.21,1.06h-2.22l-1.29,6.48h-1.18l1.29-6.48h-2.24l0.22-1.06H130.55z"/>
		<path d="M134.22,74.69c-0.66,0-1.25-0.14-1.76-0.43s-0.91-0.68-1.18-1.17c-0.28-0.5-0.41-1.06-0.41-1.68
			c0-0.62,0.12-1.21,0.36-1.77s0.57-1.04,0.99-1.45c0.42-0.41,0.92-0.73,1.5-0.96c0.58-0.24,1.2-0.36,1.85-0.36
			c1,0,1.8,0.31,2.42,0.93c0.62,0.62,0.93,1.4,0.93,2.35c0,0.62-0.12,1.21-0.36,1.77c-0.24,0.56-0.57,1.04-0.98,1.45
			s-0.91,0.73-1.49,0.97C135.48,74.57,134.87,74.69,134.22,74.69z M134.38,73.56c0.47,0,0.91-0.09,1.33-0.27
			c0.42-0.18,0.77-0.43,1.06-0.73c0.29-0.31,0.52-0.66,0.69-1.07c0.17-0.41,0.25-0.82,0.25-1.25c0-0.66-0.21-1.2-0.64-1.61
			c-0.43-0.41-0.99-0.62-1.69-0.62c-0.47,0-0.91,0.09-1.33,0.27c-0.42,0.18-0.77,0.42-1.06,0.73c-0.29,0.3-0.52,0.66-0.69,1.06
			c-0.17,0.4-0.25,0.82-0.25,1.25c0,0.66,0.21,1.2,0.64,1.62C133.12,73.35,133.68,73.56,134.38,73.56z"/>
	</g>
</g>
<g>
</g>
<g>
</g>
<g>
</g>
<g>
</g>
<g>
</g>
<g>
</g>
<g>
</g>
<g>
</g>
<g>
</g>
<g>
</g>
<g>
</g>
<g>
</g>
<g>
</g>
<g>
</g>
<g>
</g>
</svg>
